#!OML:ASF H:\Terrain\Patient Classification 1\Walking\liu\liu.ASF
:FULLY-SPECIFIED
:DEGREES
253
root 9.52533 16.8873 19.3672 6.1298 4.93767 4.95473
lowerback -7.74126 -3.97164 -7.94932
upperback -1.26839 -4.65637 0.9572
thorax 3.72698 -2.42529 4.92676
lowerneck -22.5915 -1.77115 -10.6833
upperneck 29.7998 -1.8067 9.92497
head 14.1625 -0.612061 5.57788
rclavicle -4.38437e-014 1.86858e-014
rhumerus -51.3974 8.0146 -87.3575
rradius 22.3344
rwrist -7.20644
rhand -22.9018 -28.2166
rfingers 7.12502
rthumb 3.5379 -58.167
lclavicle -4.38437e-014 1.86858e-014
lhumerus -2.87034 -23.1515 83.4351
lradius 40.6357
lwrist 12.4231
lhand -18.7114 -26.2554
lfingers 7.12502
lthumb 7.58372 3.58869
rfemur -40.3112 7.3454 13.0146
rtibia 25.0773
rfoot -20.3125 -7.60465
rtoes -17.7802
lfemur 18.5321 6.45318 -26.4794
ltibia 2.22639e-014
lfoot -11.2988 -7.33483
ltoes 4.15688
254
root 9.51167 16.8574 19.5975 5.95734 4.81484 5.10346
lowerback -7.87711 -4.01497 -8.1671
upperback -1.07464 -4.67618 0.943776
thorax 4.02604 -2.45473 5.01564
lowerneck -22.4859 -1.70139 -10.8402
upperneck 29.5419 -1.69583 10.0901
head 14.0141 -0.555176 5.67616
rclavicle 5.2181e-015 -2.78299e-015
rhumerus -51.0815 7.29392 -86.593
rradius 21.2139
rwrist -5.33221
rhand -22.7421 -27.8405
rfingers 7.12502
rthumb 3.69216 -57.7883
lclavicle 5.2181e-015 -2.78299e-015
lhumerus -2.61736 -22.5307 83.2952
lradius 41.3176
lwrist 12.9642
lhand -18.7718 -26.2689
lfingers 7.12502
lthumb 7.52543 3.57721
rfemur -39.6902 5.06338 14.4681
rtibia 25.5792
rfoot -18.2048 -5.10777
rtoes -16.454
lfemur 19.5828 6.95681 -26.1831
ltibia -4.45278e-014
lfoot -10.3705 -7.84564
ltoes 5.3563
255
root 9.49838 16.8272 19.8327 5.82603 4.784 4.73386
lowerback -7.87196 -4.00664 -7.74719
upperback -1.16165 -4.70944 1.06273
thorax 3.91302 -2.45946 4.90514
lowerneck -22.1723 -1.60245 -11.1489
upperneck 29.4898 -1.5367 10.3134
head 13.9047 -0.494683 5.84244
rclavicle 9.25475e-015 -2.46493e-014
rhumerus -51.2523 6.38846 -85.6392
rradius 20.4582
rwrist -3.47755
rhand -22.199 -28.2706
rfingers 7.12502
rthumb 4.21663 -58.2086
lclavicle 9.25475e-015 -2.46493e-014
lhumerus -2.97258 -21.913 83.5043
lradius 42.0444
lwrist 13.4325
lhand -18.7706 -26.6059
lfingers 7.12502
lthumb 7.52656 3.24021
rfemur -39.2409 3.18266 16.2443
rtibia 26.3236
rfoot -16.3234 -3.05435
rtoes -17.4447
lfemur 20.5717 7.39856 -25.3417
ltibia 1.27222e-014
lfoot -9.51507 -8.30677
ltoes 3.68183
256
root 9.49166 16.7782 20.0728 5.6485 4.66136 4.35802
lowerback -7.75132 -3.97882 -7.25013
upperback -1.33487 -4.73327 1.15887
thorax 3.63545 -2.45112 4.73928
lowerneck -22.2344 -1.43059 -10.9292
upperneck 29.9642 -1.28281 10.0086
head 14.083 -0.411278 5.75129
rclavicle -2.79976e-014 -5.1684e-015
rhumerus -51.4134 5.31121 -84.4693
rradius 19.4935
rwrist -1.44764
rhand -21.6287 -27.8481
rfingers 7.12502
rthumb 4.76733 -57.7745
lclavicle -2.79976e-014 -5.1684e-015
lhumerus -3.6361 -21.4917 83.7046
lradius 42.8192
lwrist 13.9735
lhand -19.0629 -26.9356
lfingers 7.12502
lthumb 7.2444 2.92035
rfemur -38.8783 1.76376 17.7355
rtibia 27.3842
rfoot -14.8032 -1.09288
rtoes -20.0896
lfemur 21.6653 7.9329 -24.5449
ltibia 2.22639e-014
lfoot -8.75998 -8.66011
ltoes -1.73559
257
root 9.48404 16.7488 20.3204 5.45934 4.60388 4.4049
lowerback -7.80226 -4.02125 -7.245
upperback -1.35484 -4.78676 1.1652
thorax 3.6505 -2.47746 4.73346
lowerneck -22.2696 -1.28143 -10.777
upperneck 30.2374 -1.0356 9.73022
head 14.1724 -0.331185 5.66792
rclavicle 2.76994e-014 -2.98177e-014
rhumerus -51.31 4.02719 -83.0669
rradius 18.4898
rwrist 0.915168
rhand -21.288 -27.2901
rfingers 7.12502
rthumb 5.09623 -57.2088
lclavicle 2.76994e-014 -2.98177e-014
lhumerus -4.13514 -21.102 83.8512
lradius 43.626
lwrist 14.5613
lhand -19.425 -26.8915
lfingers 7.12502
lthumb 6.89487 2.97625
rfemur -38.3292 0.690418 18.4483
rtibia 28.4181
rfoot -12.8679 0.235845
rtoes -23.4416
lfemur 22.781 8.35929 -24.1638
ltibia -9.54166e-015
lfoot -7.599 -9.30977
ltoes -5.65054
258
root 9.47091 16.7314 20.5745 5.32233 4.78566 4.40474
lowerback -8.13612 -4.18292 -7.28835
upperback -1.19015 -4.96988 1.23677
thorax 4.04549 -2.58656 4.77932
lowerneck -22.4134 -1.14603 -10.8042
upperneck 30.2201 -0.793432 9.6913
head 14.1615 -0.23211 5.70035
rclavicle -4.25213e-014 7.55382e-015
rhumerus -50.9663 3.03006 -81.8398
rradius 17.8296
rwrist 2.7402
rhand -21.1821 -26.8245
rfingers 7.12502
rthumb 5.19853 -56.7408
lclavicle -4.25213e-014 7.55382e-015
lhumerus -4.47094 -20.6033 83.9622
lradius 44.5045
lwrist 15.1502
lhand -19.6704 -26.7603
lfingers 7.12502
lthumb 6.65802 3.11503
rfemur -38.0255 0.127317 18.7821
rtibia 29.5474
rfoot -10.5117 0.657094
rtoes -28.8228
lfemur 23.8028 8.53173 -23.6707
ltibia 0
lfoot -5.90845 -9.64533
ltoes -6.88439
